<?xml version="1.0" encoding="utf-8"?>
<!-- Generator: Adobe Illustrator 16.0.0, SVG Export Plug-In . SVG Version: 6.00 Build 0)  -->
<!DOCTYPE svg PUBLIC "-//W3C//DTD SVG 1.1//EN" "http://www.w3.org/Graphics/SVG/1.1/DTD/svg11.dtd">
<svg version="1.1"
	 id="svg2" xmlns:dc="http://purl.org/dc/elements/1.1/" xmlns:cc="http://web.resource.org/cc/" xmlns:rdf="http://www.w3.org/1999/02/22-rdf-syntax-ns#" xmlns:svg="http://www.w3.org/2000/svg" xmlns:sodipodi="http://sodipodi.sourceforge.net/DTD/sodipodi-0.dtd" xmlns:inkscape="http://www.inkscape.org/namespaces/inkscape" sodipodi:version="0.32" inkscape:version="0.45.1" sodipodi:docname="Cartas_Zener.svg" inkscape:output_extension="org.inkscape.output.svg.inkscape" sodipodi:docbase="C:\Wiki Uploads\Commons"
	 xmlns="http://www.w3.org/2000/svg" xmlns:xlink="http://www.w3.org/1999/xlink" x="0px" y="0px" width="131.805px"
	 height="211.955px" viewBox="20 19.995 131.805 211.955" enable-background="new 20 19.995 131.805 211.955" xml:space="preserve">
<g id="g1937" transform="translate(-535,1.921275)">
	<path id="rect2091" fill="#FFFFFF" stroke="#000000" stroke-width="4" stroke-linecap="round" stroke-linejoin="round" d="
		M571.754,20.074h97.078c8.458,0,15.267,6.81,15.267,15.268v177.419c0,8.459-6.809,15.268-15.267,15.268h-97.078
		c-8.458,0-15.268-6.809-15.268-15.268V35.341C556.487,26.883,563.296,20.074,571.754,20.074z"/>
</g>
<g>
	<path d="M92.795,149.592H70.393c-0.059-3.221-0.088-5.184-0.088-5.887c0-7.262,1.2-13.235,3.602-17.921
		c2.401-4.685,7.204-9.956,14.408-15.813c7.204-5.856,11.509-9.692,12.915-11.509c2.166-2.869,3.25-6.031,3.25-9.488
		c0-4.802-1.919-8.917-5.754-12.343c-3.836-3.426-9.005-5.139-15.506-5.139c-6.268,0-11.509,1.787-15.726,5.359
		c-4.217,3.573-7.116,9.02-8.697,16.34L36.131,90.38c0.644-10.483,5.109-19.385,13.397-26.707
		c8.287-7.321,19.166-10.981,32.637-10.981c14.173,0,25.447,3.705,33.823,11.113c8.375,7.41,12.563,16.033,12.563,25.872
		c0,5.447-1.538,10.602-4.612,15.462c-3.075,4.862-9.65,11.48-19.723,19.854c-5.213,4.335-8.449,7.819-9.708,10.455
		C93.248,138.083,92.677,142.799,92.795,149.592z M70.393,182.799v-24.686h24.686v24.686H70.393z"/>
</g>
</svg>
