<?xml version="1.0" encoding="utf-8"?>
<!-- Generator: Adobe Illustrator 16.0.0, SVG Export Plug-In . SVG Version: 6.00 Build 0)  -->
<!DOCTYPE svg PUBLIC "-//W3C//DTD SVG 1.1//EN" "http://www.w3.org/Graphics/SVG/1.1/DTD/svg11.dtd">
<svg version="1.1"
	 id="svg2" xmlns:dc="http://purl.org/dc/elements/1.1/" xmlns:cc="http://web.resource.org/cc/" xmlns:rdf="http://www.w3.org/1999/02/22-rdf-syntax-ns#" xmlns:svg="http://www.w3.org/2000/svg" xmlns:sodipodi="http://sodipodi.sourceforge.net/DTD/sodipodi-0.dtd" xmlns:inkscape="http://www.inkscape.org/namespaces/inkscape" sodipodi:docbase="C:\Wiki Uploads\Commons" inkscape:output_extension="org.inkscape.output.svg.inkscape" sodipodi:docname="Cartas_Zener.svg" inkscape:version="0.45.1" sodipodi:version="0.32"
	 xmlns="http://www.w3.org/2000/svg" xmlns:xlink="http://www.w3.org/1999/xlink" x="0px" y="0px" width="132px" height="211.955px"
	 viewBox="299.805 19.995 132 211.955" enable-background="new 299.805 19.995 132 211.955" xml:space="preserve">
<sodipodi:namedview  width="671.61px" inkscape:cy="125.975" inkscape:cx="365.80499" borderopacity="1.0" pagecolor="#ffffff" bordercolor="#666666" inkscape:zoom="1.2834707" id="base" inkscape:current-layer="g6261" inkscape:window-y="14" inkscape:window-x="35" inkscape:window-height="712" inkscape:pageshadow="2" inkscape:window-width="1024" inkscape:pageopacity="0.0">
	</sodipodi:namedview>
<g id="g1937" transform="translate(-535,1.921275)">
	<path id="rect2091" fill="#FFFFFF" stroke="#000000" stroke-width="4" stroke-linecap="round" stroke-linejoin="round" d="
		M572.268,20.074h97.078c8.458,0,15.267,6.81,15.267,15.268v177.419c0,8.459-6.809,15.268-15.267,15.268h-97.078
		c-8.458,0-15.268-6.809-15.268-15.268V35.341C557,26.883,563.809,20.074,572.268,20.074z"/>
	<path id="path2093" fill="none" stroke="#F6C708" stroke-width="10" stroke-linecap="round" stroke-linejoin="round" d="
		M668.965,124.051c0,26.838-21.575,48.62-48.159,48.62c-26.584,0-48.159-21.781-48.159-48.62c0-26.838,21.575-48.619,48.159-48.619
		C647.39,75.432,668.965,97.214,668.965,124.051z"/>
</g>
<g id="g1907" transform="translate(145,1.921275)">
	<path id="rect2085" fill="#FFFFFF" stroke="#000000" stroke-width="4" stroke-linecap="round" stroke-linejoin="round" d="
		M32.268,20.074h97.078c8.458,0,15.267,6.81,15.267,15.268v177.419c0,8.459-6.809,15.268-15.267,15.268H32.268
		c-8.458,0-15.268-6.809-15.268-15.268V35.341C17,26.883,23.809,20.074,32.268,20.074z"/>
	<path id="path4279" fill="none" stroke="#FE0000" stroke-width="12" d="M80.807,73.16v101.783 M131.698,124.051H29.915"/>
</g>
<g id="g1916" transform="translate(150,1.921275)">
	<path id="rect2081" fill="#FFFFFF" stroke="#000000" stroke-width="4" stroke-linecap="round" stroke-linejoin="round" d="
		M167.268,20.074h97.079c8.457,0,15.268,6.81,15.268,15.268v177.419c0,8.459-6.811,15.268-15.268,15.268h-97.079
		c-8.458,0-15.268-6.809-15.268-15.268V35.341C152,26.883,158.81,20.074,167.268,20.074z"/>
	<g id="g6261">
		<path id="path2161" sodipodi:nodetypes="cccccccccccccccc" fill="#094CF6" d="M214.184,162.236
			c2.518-5.124,3.292-11.334,0.533-16.517c-2.069-4.178-4.85-7.799-7.415-11.672c-4.07-5.265-7.264-11.835-5.811-18.526
			c0.765-4.845,3.718-9.023,6.023-13.257c2.259-3.721,4.483-7.759,5.547-12.05c1.134-5.885-0.645-14.509-4.693-19.127l12.095,0.004
			c2.861,4.495,6.143,9.345,5.594,14.858c0.465,7.209-4.205,13.332-7.354,19.506c-3.75,5.876-6.528,13.343-3.435,20.033
			c2.882,6.344,7.646,11.688,11.052,17.775c2.863,4.525,3.094,10.16,1.963,15.213c-2.125,5.6-5.189,12.688-7.711,18.121
			l-13.116-0.018C209.111,171.581,211.896,166.989,214.184,162.236z"/>
		<path id="path2248" sodipodi:nodetypes="cccccccccccccccc" fill="#094CF6" d="M193.926,162.236
			c2.519-5.124,3.291-11.334,0.533-16.517c-2.069-4.178-4.85-7.799-7.415-11.672c-4.07-5.265-7.263-11.835-5.81-18.526
			c0.765-4.845,3.717-9.023,6.022-13.257c2.259-3.721,4.484-7.759,5.547-12.05c1.134-5.885-0.644-14.509-4.693-19.127l12.096,0.004
			c2.861,4.495,6.142,9.345,5.594,14.858c0.465,7.209-4.204,13.332-7.354,19.506c-3.75,5.876-6.528,13.343-3.436,20.033
			c2.882,6.344,7.646,11.688,11.053,17.775c2.863,4.525,3.095,10.16,1.963,15.213c-2.125,5.6-5.19,12.688-7.711,18.121
			l-13.116-0.018C188.854,171.581,191.639,166.989,193.926,162.236z"/>
		<path id="path2250" sodipodi:nodetypes="cccccccccccccccc" fill="#094CF6" d="M234.442,162.236
			c2.518-5.124,3.291-11.334,0.533-16.517c-2.07-4.178-4.85-7.799-7.416-11.672c-4.07-5.265-7.264-11.835-5.811-18.526
			c0.766-4.845,3.719-9.023,6.023-13.257c2.258-3.721,4.484-7.759,5.547-12.05c1.133-5.885-0.645-14.509-4.693-19.127l12.096,0.004
			c2.861,4.495,6.143,9.345,5.594,14.858c0.465,7.209-4.205,13.332-7.354,19.506c-3.75,5.876-6.527,13.343-3.436,20.033
			c2.883,6.344,7.645,11.688,11.053,17.775c2.863,4.525,3.094,10.16,1.963,15.213c-2.125,5.6-5.191,12.688-7.711,18.121
			l-13.117-0.018C229.37,171.581,232.155,166.989,234.442,162.236z"/>
	</g>
</g>
<g id="g1925" transform="translate(155,1.921275)">
	<path id="rect2089" fill="#FFFFFF" stroke="#000000" stroke-width="4" stroke-linecap="round" stroke-linejoin="round" d="
		M302.268,20.074h97.078c8.457,0,15.268,6.81,15.268,15.268v177.419c0,8.459-6.811,15.268-15.268,15.268h-97.078
		c-8.459,0-15.268-6.809-15.268-15.268V35.341C287,26.883,293.809,20.074,302.268,20.074z"/>
	<path id="rect3551" fill="none" stroke="#000000" stroke-width="12" stroke-linecap="round" d="M309.088,82.351h83.436v83.401
		h-83.436V82.351z"/>
</g>
<g id="g1931" transform="translate(160,1.921275)">
	<path id="rect2087" fill="#FFFFFF" stroke="#000000" stroke-width="4" stroke-linecap="round" stroke-linejoin="round" d="
		M437.268,20.074h97.078c8.457,0,15.268,6.81,15.268,15.268v177.419c0,8.459-6.811,15.268-15.268,15.268h-97.078
		c-8.459,0-15.268-6.809-15.268-15.268V35.341C422,26.883,428.809,20.074,437.268,20.074z"/>
	<path id="path2821" fill="none" stroke="#29C430" stroke-width="10" stroke-linecap="round" stroke-linejoin="round" d="
		M516.528,170.991l-30.922-17.242l-31.088,16.832l7.092-34.166l-25.971-23.854l35.305-3.874l15.039-31.576l14.727,31.772
		l35.264,4.34l-26.203,23.51L516.528,170.991z"/>
</g>
</svg>
